HIERARCHY
ROOT Hips
{
	OFFSET -3.958830 18.904000 13.208200
	CHANNELS 6 Xposition Yposition Zposition Zrotation Yrotation Xrotation 
	JOINT LHipJoint
	{
		OFFSET 0.000000 0.000000 0.000000
		CHANNELS 3 Zrotation Yrotation Xrotation
		JOINT LeftUpLeg
		{
			OFFSET 1.800000 -1.400000 0.085000
			CHANNELS 3 Zrotation Yrotation Xrotation
			JOINT LeftLeg
			{
				OFFSET 2.215000 -6.000000 0.000000
				CHANNELS 3 Zrotation Yrotation Xrotation
				JOINT LeftFoot
				{
					OFFSET 2.500000 -6.900000 0.000000
					CHANNELS 3 Zrotation Yrotation Xrotation
					JOINT LeftToeBase
					{
						OFFSET 0.200000 -0.500000 1.950000
						CHANNELS 3 Zrotation Yrotation Xrotation
						End Site
						{
							OFFSET 0.000000 0.000000 0.000000
						}
					}
				}
			}
		}
	}
	JOINT RHipJoint
	{
		OFFSET 0.000000 0.000000 0.000000
		CHANNELS 3 Zrotation Yrotation Xrotation
		JOINT RightUpLeg
		{
			OFFSET -1.800000 -1.400000 0.085000
			CHANNELS 3 Zrotation Yrotation Xrotation
			JOINT RightLeg
			{
				OFFSET -2.215000 -6.000000 0.000000
				CHANNELS 3 Zrotation Yrotation Xrotation
				JOINT RightFoot
				{
					OFFSET -2.500000 -6.900000 0.000000
					CHANNELS 3 Zrotation Yrotation Xrotation
					JOINT RightToeBase
					{
						OFFSET -0.200000 -0.500000 1.950000
						CHANNELS 3 Zrotation Yrotation Xrotation
						End Site
						{
							OFFSET 0.000000 0.000000 0.000000
						}
					}
				}
			}
		}
	}
	JOINT LowerBack
	{
		OFFSET 0.000000 0.000000 0.000000
		CHANNELS 3 Zrotation Yrotation Xrotation
		JOINT Spine
		{
			OFFSET -0.087000 1.940000 -0.288900
			CHANNELS 3 Zrotation Yrotation Xrotation
			JOINT Spine1
			{
				OFFSET 0.000000 1.950000 0.060000
				CHANNELS 3 Zrotation Yrotation Xrotation
				JOINT Neck
				{
					OFFSET 0.000000 0.000000 0.000000
					CHANNELS 3 Zrotation Yrotation Xrotation
					JOINT Neck1
					{
						OFFSET 0.000000 1.600000 0.340000
						CHANNELS 3 Zrotation Yrotation Xrotation
						JOINT Head
						{
							OFFSET 0.000000 1.667000 -0.240000
							CHANNELS 3 Zrotation Yrotation Xrotation
							End Site
							{
								OFFSET 0.000000 0.000000 0.000000
							}
						}
					}
				}
				JOINT LeftShoulder
				{
					OFFSET 0.000000 0.000000 0.000000
					CHANNELS 3 Zrotation Yrotation Xrotation
					JOINT LeftArm
					{
						OFFSET 2.700000 1.550000 -0.730000
						CHANNELS 3 Zrotation Yrotation Xrotation
						JOINT LeftForeArm
						{
							OFFSET 5.450000 0.000000 0.000000
							CHANNELS 3 Zrotation Yrotation Xrotation
							JOINT LeftHand
							{
								OFFSET 3.450000 0.000000 0.000000
								CHANNELS 3 Zrotation Yrotation Xrotation
								JOINT LeftHandIndex1
								{
									OFFSET 0.750000 0.000000 0.000000
									CHANNELS 3 Zrotation Yrotation Xrotation
									End Site
									{
										OFFSET 0.000000 0.000000 0.000000
									}
								}
							}
						}
					}
				}
				JOINT RightShoulder
				{
					OFFSET 0.000000 0.000000 0.000000
					CHANNELS 3 Zrotation Yrotation Xrotation
					JOINT RightArm
					{
						OFFSET -2.700000 1.550000 -0.730000
						CHANNELS 3 Zrotation Yrotation Xrotation
						JOINT RightForeArm
						{
							OFFSET -5.450000 0.000000 0.000000
							CHANNELS 3 Zrotation Yrotation Xrotation
							JOINT RightHand
							{
								OFFSET -3.450000 0.000000 0.000000
								CHANNELS 3 Zrotation Yrotation Xrotation
								JOINT RightHandIndex1
								{
									OFFSET -0.750000 0.000000 0.000000
									CHANNELS 3 Zrotation Yrotation Xrotation
									End Site
									{
										OFFSET 0.000000 0.000000 0.000000
									}
								}
							}
						}
					}
				}
			}
		}
	}
}
MOTION
Frames: 14
Frame Time: 0.016667
-0.170060 17.810900 -0.556510 -2.386218 -1.906505 4.783258 -15.056150 13.114119 2.653583 2.313221 -1.834626 -14.804097 -4.009759 4.662272 11.579452 -0.907552 4.193944 3.532624 -0.482630 -0.824960 -0.507980 18.448750 -10.874400 2.829740 -1.470614 0.735794 -11.295523 5.447300 -3.937454 6.612823 0.414463 -3.710194 3.328826 -0.100710 1.356660 0.115670 -3.972884 -1.375068 -6.766794 12.158199 1.330410 1.539144 -4.791917 1.970011 8.829274 0.455337 -4.489728 -10.403737 -7.450837 0.763234 20.508870 -2.384010 -2.918060 9.073740 -6.190078 -14.036661 3.401668 2.734044 -20.747554 -3.352223 101.636722 -18.107478 -23.585523 -4.682252 2.824440 -0.045660 0.847700 -0.910740 0.123650 5.607356 16.820190 7.379969 1.245616 4.752165 -9.429933 -105.104743 20.019293 -28.257907 1.869275 -2.042524 -0.744830 0.546790 0.617510 0.039020 
-0.167680 17.811600 -0.556330 -2.461264 -1.730598 4.597258 -15.049433 13.119867 2.654831 2.421876 -1.781641 -14.507132 -4.037007 4.627088 11.242983 -0.879955 4.153940 3.544178 -0.450610 -0.784420 -0.481050 18.452971 -10.885733 2.829390 -1.398706 0.700835 -11.160935 5.328012 -3.929407 6.728330 0.391362 -3.708617 3.324181 -0.093600 1.322160 0.120330 -3.989874 -1.366029 -6.782395 12.422304 1.196677 1.706882 -4.943883 1.872503 8.820691 0.535065 -4.476802 -10.419844 -7.489736 0.689988 20.793189 -2.621070 -2.727600 8.991100 -6.582232 -14.208955 3.432731 2.832779 -20.728854 -3.405303 101.921386 -18.099576 -23.586222 -4.649867 2.843461 -0.044570 0.828360 -0.883040 0.135150 5.809710 16.966226 7.408795 1.069865 4.757012 -9.431743 -105.394074 19.954570 -28.336376 1.886384 -2.060960 -0.719150 0.524680 0.581900 0.042050 
-0.168700 17.803750 -0.559040 -2.403093 -1.517665 4.419263 -15.051036 13.127174 2.664670 2.521919 -1.747382 -14.265415 -4.248640 4.660249 11.027617 -0.866338 4.172544 3.539664 -0.418940 -0.753310 -0.447540 18.448897 -10.903464 2.806839 -1.306825 0.758752 -11.399409 4.943107 -3.891572 7.337879 0.391461 -3.689806 3.318773 -0.076810 1.311490 0.133730 -3.982906 -1.354420 -6.778523 12.330573 1.100814 1.852124 -4.933430 1.789386 8.894521 0.544414 -4.358429 -10.310746 -7.248203 0.578298 20.679068 -2.850370 -2.640410 8.881350 -7.024906 -14.325454 3.378754 2.860686 -21.001405 -3.404769 102.599060 -18.003934 -23.746588 -4.651391 2.864431 -0.059600 0.830660 -0.876180 0.140660 6.211082 16.985975 7.318241 0.739859 4.899429 -9.406436 -105.985791 19.746873 -28.423017 1.890658 -2.088787 -0.701780 0.511650 0.559140 0.042300 
-0.165970 17.790640 -0.560750 -2.333575 -1.299063 4.361265 -15.052470 13.121188 2.666974 2.566435 -1.734055 -14.204737 -4.411054 4.693653 10.922210 -0.883336 4.219608 3.533395 -0.427160 -0.755450 -0.464210 18.449221 -10.916264 2.781440 -1.311357 0.810303 -11.611243 4.722423 -3.886086 7.860971 0.413219 -3.705020 3.310890 -0.058030 1.348650 0.135930 -3.983750 -1.331519 -6.751959 12.315253 1.027295 1.754492 -5.065011 1.726788 9.071485 0.491785 -4.298658 -10.158210 -7.054201 0.515446 20.308734 -2.905060 -2.805500 8.988570 -7.016209 -14.200617 3.271943 2.447876 -21.631774 -3.275670 103.290505 -17.620996 -23.771565 -4.689724 2.867006 -0.086180 0.861060 -0.903880 0.142830 6.289620 16.775472 7.170506 0.935839 5.319929 -9.322728 -106.798402 19.480540 -28.650395 1.869015 -2.107227 -0.715860 0.530570 0.574870 0.049410 
-0.164930 17.774760 -0.562030 -2.243720 -1.224885 4.327827 -15.057174 13.127365 2.664788 2.658112 -1.781726 -14.494938 -4.637275 4.842345 11.544361 -0.909590 4.339024 3.500876 -0.452100 -0.787320 -0.501020 18.444740 -10.928823 2.754100 -1.270794 0.890104 -11.892788 4.460947 -3.896159 8.541914 0.444767 -3.728794 3.300469 -0.050310 1.415570 0.154550 -3.970691 -1.329112 -6.711533 12.112907 1.022425 1.575956 -4.860065 1.680509 9.252567 0.318047 -4.373798 -9.985780 -7.078030 0.520730 19.847382 -2.769670 -3.238770 9.197510 -6.799781 -13.932835 3.225838 1.313123 -22.308109 -2.978710 104.272418 -17.203607 -24.070061 -4.752763 2.869360 -0.111830 0.908090 -0.946390 0.142720 6.426196 16.559756 6.930876 0.867145 6.107434 -9.191794 -107.570420 19.195867 -28.738078 1.834034 -2.114734 -0.736440 0.556050 0.616870 0.060040 
-0.162420 17.754450 -0.559670 -2.207525 -1.220815 4.195063 -15.059423 13.144742 2.664043 2.843979 -1.842042 -14.916829 -4.909889 5.081572 12.616365 -0.937645 4.479689 3.456159 -0.469980 -0.799680 -0.532390 18.436779 -10.962677 2.718176 -1.283705 0.986507 -12.282565 4.282666 -3.976970 9.773984 0.473842 -3.765902 3.286609 -0.028560 1.470520 0.155530 -3.954468 -1.310614 -6.670624 11.830996 1.079632 1.499664 -4.560269 1.694135 9.486498 0.164989 -4.297250 -9.827261 -6.861820 0.488108 19.505220 -2.731400 -3.506050 9.231750 -6.441642 -13.664746 3.159411 0.162292 -23.084119 -2.666581 105.351468 -16.778231 -24.426712 -4.800794 2.861199 -0.133340 0.947960 -0.983120 0.145110 6.379170 16.257338 6.717585 1.088147 6.724597 -9.092208 -108.321811 18.926915 -28.929522 1.798496 -2.122831 -0.764430 0.590670 0.646810 0.067130 
-0.161570 17.735450 -0.553280 -2.171528 -1.436024 3.797319 -15.059563 13.195379 2.676476 3.118814 -1.850326 -15.004911 -5.235682 5.352785 13.627190 -0.952393 4.631560 3.392370 -0.463130 -0.809670 -0.520540 18.421857 -11.013512 2.668858 -1.291511 1.166518 -12.927530 3.940409 -4.130023 11.956610 0.475626 -3.791930 3.258289 -0.023850 1.474800 0.169940 -3.927195 -1.319993 -6.647499 11.482335 1.188409 1.664420 -4.178514 1.757250 9.738775 0.080469 -4.223703 -9.798478 -6.806497 0.521355 19.804220 -2.688610 -3.568480 8.931330 -6.019410 -13.492947 3.188705 -1.173614 -23.687274 -2.347629 106.474595 -16.482984 -24.991793 -4.805341 2.859685 -0.109230 0.948720 -0.978370 0.142380 6.129926 16.099083 6.639713 1.656678 7.327574 -9.062579 -109.230855 18.895520 -29.547947 1.773835 -2.117872 -0.776260 0.598740 0.659020 0.055460 
-0.156590 17.713480 -0.544370 -2.272352 -1.479187 3.275806 -15.051287 13.242824 2.682940 3.598836 -1.819203 -14.962542 -5.722307 5.726520 14.736588 -0.942244 4.813258 3.320234 -0.451290 -0.803580 -0.508770 18.414751 -11.075707 2.618869 -1.137648 1.474566 -13.906816 3.458131 -4.330439 15.154286 0.473884 -3.873878 3.216748 -0.016400 1.480010 0.173950 -3.925019 -1.294557 -6.625028 11.440980 1.211821 1.895522 -4.043584 1.760425 9.961183 0.037562 -4.063054 -9.705483 -6.614157 0.634251 20.166972 -2.480480 -3.573570 8.754750 -5.840308 -13.379299 3.153984 -1.885670 -24.337790 -2.087495 107.351352 -16.424244 -25.540687 -4.808116 2.853075 -0.101360 0.951180 -0.978720 0.142240 6.013619 15.881918 6.519339 2.186875 8.040375 -8.937094 -109.967270 18.941816 -30.167800 1.755562 -2.113558 -0.779610 0.607810 0.660820 0.050730 
-0.151000 17.695810 -0.536900 -2.347018 -1.839000 2.505104 -15.035319 13.287951 2.684899 4.144433 -1.713514 -14.584580 -6.273819 6.140412 15.716821 -0.945357 5.006742 3.230110 -0.439270 -0.798470 -0.487010 18.412795 -11.134281 2.584782 -1.271964 1.862364 -14.886617 3.283096 -4.672119 18.718306 0.446285 -4.045083 3.134109 -0.007100 1.453900 0.162000 -3.938101 -1.258826 -6.628674 11.535610 1.264943 2.428448 -4.063064 1.844580 10.185462 0.048752 -3.982727 -9.558953 -6.673939 0.868458 21.079496 -2.352210 -3.367160 8.274420 -6.059790 -13.284849 3.065314 -2.098978 -24.798286 -1.875477 108.177656 -16.528151 -26.057237 -4.786956 2.825035 -0.062520 0.929500 -0.962960 0.130680 6.155795 15.769787 6.393947 2.483648 8.998990 -8.773236 -110.796214 19.016121 -30.772875 1.739770 -2.083060 -0.795370 0.617930 0.663700 0.028090 
-0.145700 17.683380 -0.532130 -2.491766 -1.811825 1.285241 -15.021883 13.359819 2.681920 4.838812 -1.575970 -13.907821 -6.687502 6.552374 16.792263 -0.929424 5.176393 3.113974 -0.378530 -0.753060 -0.391770 18.404293 -11.173804 2.578190 -1.408219 2.269466 -15.528506 3.154596 -5.087192 22.441303 0.347559 -4.269375 2.997533 -0.004940 1.338420 0.166430 -3.942669 -1.289832 -6.688415 11.715496 1.144396 3.538416 -4.074848 1.805576 10.559628 0.166758 -3.843586 -9.557236 -6.827064 0.933399 22.816082 -2.296020 -3.055580 6.569540 -6.219491 -13.512642 3.051628 -2.169957 -25.239505 -1.895561 108.751726 -16.433350 -26.332597 -4.703020 2.808060 0.028530 0.842840 -0.874090 0.100790 6.005095 15.918439 6.429327 3.056922 9.662008 -8.942336 -111.617984 18.804387 -31.191352 1.755353 -2.044753 -0.770960 0.591950 0.635460 -0.013990 
-0.135620 17.665170 -0.523900 -2.401804 -1.252947 0.277725 -15.037678 13.402422 2.670538 5.261163 -1.444998 -13.167650 -7.101665 6.896694 17.479309 -0.939321 5.350321 3.022491 -0.314360 -0.701240 -0.315830 18.380763 -11.151803 2.585113 -2.021861 2.966464 -17.029589 3.553540 -5.833600 27.207827 0.239764 -4.728185 2.787921 0.026090 1.273050 0.173520 -3.895553 -1.359498 -6.734889 11.269681 0.992023 4.369259 -3.596770 1.612918 10.984023 0.211394 -3.442554 -9.353581 -6.349595 0.925108 23.745549 -2.518980 -2.697160 5.262710 -6.225203 -13.486662 2.932090 -2.600429 -26.174947 -1.686434 109.582229 -16.315422 -26.835571 -4.664989 2.804779 0.083170 0.804010 -0.828710 0.091940 5.896355 15.605908 6.195872 3.355324 10.310568 -8.988068 -112.455301 18.541041 -31.554028 1.735963 -2.046345 -0.765570 0.583280 0.610760 -0.050860 
-0.126760 17.647890 -0.512160 -2.133851 -0.513573 -0.635196 -15.066760 13.444939 2.651577 5.322381 -1.342731 -12.491355 -7.273141 7.199496 18.389521 -0.937161 5.534290 2.931718 -0.298200 -0.695220 -0.293060 18.351327 -11.089462 2.611400 -2.994767 3.602600 -18.443043 4.244590 -6.782460 31.547341 0.130936 -5.286728 2.546466 0.032110 1.245570 0.187950 -3.825645 -1.499189 -6.787707 10.522047 0.798438 5.085646 -3.127317 1.335516 11.326007 0.161136 -3.143788 -9.200323 -6.061619 1.038606 24.641075 -2.305070 -2.637930 4.497380 -6.052341 -13.428017 2.862658 -2.929800 -26.896858 -1.537053 110.079053 -16.154393 -27.133440 -4.657839 2.800083 0.120290 0.783530 -0.804640 0.074790 5.822877 15.317376 5.984704 3.643112 10.937816 -9.004468 -113.246810 18.257339 -31.773522 1.722690 -2.035560 -0.764400 0.576880 0.622630 -0.068890 
-0.121930 17.627950 -0.496090 -1.780758 0.666262 -1.235505 -15.107975 13.466614 2.617923 5.178362 -1.290259 -12.015450 -7.176647 7.330086 18.990283 -0.948741 5.646285 2.883453 -0.287970 -0.679430 -0.284000 18.321105 -10.992282 2.647589 -4.224367 4.050489 -19.906300 5.385622 -7.936149 34.983243 0.041700 -5.860774 2.326901 0.055160 1.249290 0.185720 -3.745429 -1.666091 -6.813101 9.551725 0.427210 5.362558 -2.574687 0.813759 11.587438 0.024499 -2.886258 -8.866374 -5.733284 1.128465 24.990884 -2.312650 -2.573080 4.127900 -5.840632 -13.003445 2.703026 -3.460540 -27.722378 -1.205443 110.584862 -16.000342 -27.351088 -4.680065 2.783344 0.118760 0.794660 -0.811600 0.064600 5.902366 14.663464 5.539847 3.622223 11.982124 -8.674013 -113.995437 18.106305 -31.962216 1.697681 -2.029752 -0.772950 0.591360 0.632230 -0.077780 
-0.117930 17.611080 -0.480540 -1.390976 1.795590 -1.413141 -15.153327 13.452404 2.587772 4.995573 -1.243267 -11.704181 -7.304741 7.416849 19.038255 -0.940345 5.698825 2.867252 -0.286990 -0.669210 -0.283640 18.296151 -10.866438 2.701592 -5.423893 4.422882 -21.558643 6.484473 -9.065766 37.818066 -0.037321 -6.402200 2.120194 0.071410 1.259260 0.185800 -3.664215 -1.818882 -6.829171 8.490680 0.131031 5.142260 -1.945546 0.303573 11.749409 -0.108689 -2.609310 -8.557133 -5.345018 1.124822 25.209248 -2.572400 -2.425570 4.521360 -5.447272 -12.408272 2.574541 -4.260539 -28.634825 -0.711935 110.681326 -15.849824 -27.278638 -4.706007 2.791466 0.089990 0.815520 -0.827820 0.060620 5.815207 13.839080 5.091701 3.745180 13.058457 -8.110019 -114.701523 18.107162 -32.250907 1.687510 -2.047584 -0.772960 0.589350 0.632710 -0.075990 
